<mxfile host="app.diagrams.net" modified="2024-01-26T13:47:00.569Z" agent="Mozilla/5.0 (X11; Linux x86_64; rv:102.0) Gecko/20100101 Firefox/102.0" etag="YoyIk9XRCk08LBxr21B-" version="23.0.2" type="device">
  <diagram name="Page-1" id="vJfFicUDuaj3sC3rsSDq">
    <mxGraphModel dx="934" dy="576" grid="1" gridSize="10" guides="1" tooltips="1" connect="1" arrows="1" fold="1" page="1" pageScale="1" pageWidth="775" pageHeight="550" math="0" shadow="0">
      <root>
        <mxCell id="0" />
        <mxCell id="1" parent="0" />
        <mxCell id="EPUnmvleZXee-a4uKBJ4-33" value="" style="rounded=0;whiteSpace=wrap;html=1;" vertex="1" parent="1">
          <mxGeometry x="20" y="122" width="730" height="390" as="geometry" />
        </mxCell>
        <mxCell id="EPUnmvleZXee-a4uKBJ4-2" value="Dependency" style="swimlane;childLayout=stackLayout;horizontal=1;fillColor=none;horizontalStack=1;resizeParent=1;resizeParentMax=0;resizeLast=0;collapsible=0;strokeColor=none;stackBorder=10;stackSpacing=-12;resizable=1;align=center;points=[];whiteSpace=wrap;html=1;" vertex="1" parent="1">
          <mxGeometry x="196" y="12" width="378" height="100" as="geometry" />
        </mxCell>
        <mxCell id="EPUnmvleZXee-a4uKBJ4-3" value="midpoint_data&lt;br&gt;[ started ]" style="shape=step;perimeter=stepPerimeter;fixedSize=1;points=[];whiteSpace=wrap;html=1;fillColor=#d5e8d4;strokeColor=#82b366;" vertex="1" parent="EPUnmvleZXee-a4uKBJ4-2">
          <mxGeometry x="10" y="33" width="130" height="57" as="geometry" />
        </mxCell>
        <mxCell id="EPUnmvleZXee-a4uKBJ4-4" value="data_init&lt;br&gt;[ completed ]" style="shape=step;perimeter=stepPerimeter;fixedSize=1;points=[];whiteSpace=wrap;html=1;fillColor=#dae8fc;strokeColor=#6c8ebf;" vertex="1" parent="EPUnmvleZXee-a4uKBJ4-2">
          <mxGeometry x="128" y="33" width="120" height="57" as="geometry" />
        </mxCell>
        <mxCell id="EPUnmvleZXee-a4uKBJ4-5" value="midpoint_server" style="shape=step;perimeter=stepPerimeter;fixedSize=1;points=[];whiteSpace=wrap;html=1;fillColor=#d5e8d4;strokeColor=#82b366;" vertex="1" parent="EPUnmvleZXee-a4uKBJ4-2">
          <mxGeometry x="236" y="33" width="132" height="57" as="geometry" />
        </mxCell>
        <mxCell id="EPUnmvleZXee-a4uKBJ4-26" value="&lt;font color=&quot;#808080&quot;&gt;prepare configuration for midPoint start&lt;/font&gt;" style="edgeStyle=orthogonalEdgeStyle;rounded=0;orthogonalLoop=1;jettySize=auto;html=1;exitX=0.5;exitY=1;exitDx=0;exitDy=0;entryX=0.5;entryY=0;entryDx=0;entryDy=0;dashed=1;" edge="1" parent="1" source="EPUnmvleZXee-a4uKBJ4-11" target="EPUnmvleZXee-a4uKBJ4-23">
          <mxGeometry x="-0.1459" y="71" relative="1" as="geometry">
            <mxPoint x="70" y="-61" as="offset" />
          </mxGeometry>
        </mxCell>
        <mxCell id="EPUnmvleZXee-a4uKBJ4-11" value="data_init" style="swimlane;whiteSpace=wrap;html=1;fillColor=#dae8fc;strokeColor=#6c8ebf;" vertex="1" parent="1">
          <mxGeometry x="470" y="247" width="220" height="70" as="geometry" />
        </mxCell>
        <mxCell id="EPUnmvleZXee-a4uKBJ4-20" value="image : evolveum/midpoint:4.8-alpine" style="text;html=1;strokeColor=none;fillColor=none;align=center;verticalAlign=middle;whiteSpace=wrap;rounded=0;container=0;" vertex="1" parent="EPUnmvleZXee-a4uKBJ4-11">
          <mxGeometry x="7.5" y="30" width="205" height="30" as="geometry" />
        </mxCell>
        <mxCell id="EPUnmvleZXee-a4uKBJ4-1" value="midpoint_data" style="swimlane;startSize=23;container=0;fillColor=#d5e8d4;strokeColor=#82b366;" vertex="1" parent="1">
          <mxGeometry x="122" y="142" width="160" height="70" as="geometry" />
        </mxCell>
        <mxCell id="EPUnmvleZXee-a4uKBJ4-7" value="image : postgres:16-alpine" style="text;html=1;strokeColor=none;fillColor=none;align=center;verticalAlign=middle;whiteSpace=wrap;rounded=0;container=0;" vertex="1" parent="EPUnmvleZXee-a4uKBJ4-1">
          <mxGeometry x="5" y="30" width="150" height="30" as="geometry" />
        </mxCell>
        <mxCell id="EPUnmvleZXee-a4uKBJ4-14" value="" style="group" vertex="1" connectable="0" parent="1">
          <mxGeometry x="40" y="222" width="110" height="30" as="geometry" />
        </mxCell>
        <mxCell id="EPUnmvleZXee-a4uKBJ4-8" value="" style="shape=datastore;whiteSpace=wrap;html=1;container=0;movable=1;resizable=1;rotatable=1;deletable=1;editable=1;locked=0;connectable=1;" vertex="1" parent="EPUnmvleZXee-a4uKBJ4-14">
          <mxGeometry width="30" height="30" as="geometry" />
        </mxCell>
        <mxCell id="EPUnmvleZXee-a4uKBJ4-12" value="midpoint_data" style="text;html=1;strokeColor=none;fillColor=none;align=center;verticalAlign=middle;whiteSpace=wrap;rounded=0;" vertex="1" parent="EPUnmvleZXee-a4uKBJ4-14">
          <mxGeometry x="50" width="60" height="30" as="geometry" />
        </mxCell>
        <mxCell id="EPUnmvleZXee-a4uKBJ4-19" value="&lt;font color=&quot;#808080&quot;&gt;DB data&lt;/font&gt;" style="edgeStyle=orthogonalEdgeStyle;rounded=0;orthogonalLoop=1;jettySize=auto;html=1;entryX=0.497;entryY=-0.088;entryDx=0;entryDy=0;entryPerimeter=0;jumpStyle=none;shadow=0;dashed=1;" edge="1" parent="1" source="EPUnmvleZXee-a4uKBJ4-1" target="EPUnmvleZXee-a4uKBJ4-8">
          <mxGeometry x="0.6338" y="25" relative="1" as="geometry">
            <mxPoint as="offset" />
          </mxGeometry>
        </mxCell>
        <mxCell id="EPUnmvleZXee-a4uKBJ4-22" value="" style="group" vertex="1" connectable="0" parent="1">
          <mxGeometry x="420" y="360" width="110" height="30" as="geometry" />
        </mxCell>
        <mxCell id="EPUnmvleZXee-a4uKBJ4-23" value="" style="shape=datastore;whiteSpace=wrap;html=1;container=0;movable=1;resizable=1;rotatable=1;deletable=1;editable=1;locked=0;connectable=1;" vertex="1" parent="EPUnmvleZXee-a4uKBJ4-22">
          <mxGeometry x="-6" width="30" height="30" as="geometry" />
        </mxCell>
        <mxCell id="EPUnmvleZXee-a4uKBJ4-24" value="midpoint_home" style="text;html=1;strokeColor=none;fillColor=none;align=center;verticalAlign=middle;whiteSpace=wrap;rounded=0;" vertex="1" parent="EPUnmvleZXee-a4uKBJ4-22">
          <mxGeometry x="50" width="60" height="30" as="geometry" />
        </mxCell>
        <mxCell id="EPUnmvleZXee-a4uKBJ4-30" value="&lt;font color=&quot;#808080&quot;&gt;midpoint home&lt;/font&gt;" style="edgeStyle=orthogonalEdgeStyle;rounded=0;orthogonalLoop=1;jettySize=auto;html=1;entryX=0.5;entryY=1;entryDx=0;entryDy=0;dashed=1;strokeColor=#000000;" edge="1" parent="1" source="EPUnmvleZXee-a4uKBJ4-27" target="EPUnmvleZXee-a4uKBJ4-23">
          <mxGeometry x="-0.0916" y="-15" relative="1" as="geometry">
            <mxPoint x="-1" as="offset" />
          </mxGeometry>
        </mxCell>
        <mxCell id="EPUnmvleZXee-a4uKBJ4-34" value="net" style="shape=cylinder3;whiteSpace=wrap;html=1;boundedLbl=1;backgroundOutline=1;size=15;direction=south;" vertex="1" parent="1">
          <mxGeometry x="46" y="272" width="358" height="20" as="geometry" />
        </mxCell>
        <mxCell id="EPUnmvleZXee-a4uKBJ4-38" value="DB repository" style="edgeStyle=orthogonalEdgeStyle;rounded=0;orthogonalLoop=1;jettySize=auto;html=1;entryX=0.5;entryY=1;entryDx=0;entryDy=0;" edge="1" parent="1" source="EPUnmvleZXee-a4uKBJ4-27" target="EPUnmvleZXee-a4uKBJ4-1">
          <mxGeometry x="-0.6552" y="-40" relative="1" as="geometry">
            <Array as="points">
              <mxPoint x="130" y="282" />
              <mxPoint x="202" y="282" />
            </Array>
            <mxPoint as="offset" />
          </mxGeometry>
        </mxCell>
        <mxCell id="EPUnmvleZXee-a4uKBJ4-27" value="midpoint_server" style="swimlane;whiteSpace=wrap;html=1;fillColor=#d5e8d4;strokeColor=#82b366;" vertex="1" parent="1">
          <mxGeometry x="80" y="380" width="220" height="70" as="geometry" />
        </mxCell>
        <mxCell id="EPUnmvleZXee-a4uKBJ4-28" value="image : evolveum/midpoint:4.8-alpine" style="text;html=1;strokeColor=none;fillColor=none;align=center;verticalAlign=middle;whiteSpace=wrap;rounded=0;container=0;" vertex="1" parent="EPUnmvleZXee-a4uKBJ4-27">
          <mxGeometry x="7.5" y="30" width="205" height="30" as="geometry" />
        </mxCell>
        <mxCell id="EPUnmvleZXee-a4uKBJ4-35" value="init native repository" style="edgeStyle=orthogonalEdgeStyle;rounded=0;orthogonalLoop=1;jettySize=auto;html=1;entryX=0.75;entryY=1;entryDx=0;entryDy=0;exitX=0;exitY=0.5;exitDx=0;exitDy=0;" edge="1" parent="1" source="EPUnmvleZXee-a4uKBJ4-11" target="EPUnmvleZXee-a4uKBJ4-1">
          <mxGeometry x="-0.5054" y="-17" relative="1" as="geometry">
            <mxPoint x="260" y="197" as="targetPoint" />
            <mxPoint as="offset" />
          </mxGeometry>
        </mxCell>
        <mxCell id="EPUnmvleZXee-a4uKBJ4-40" value="" style="endArrow=classic;html=1;rounded=0;entryX=0.25;entryY=1;entryDx=0;entryDy=0;" edge="1" parent="1" target="EPUnmvleZXee-a4uKBJ4-27">
          <mxGeometry width="50" height="50" relative="1" as="geometry">
            <mxPoint x="135" y="532" as="sourcePoint" />
            <mxPoint x="190" y="562" as="targetPoint" />
          </mxGeometry>
        </mxCell>
        <mxCell id="EPUnmvleZXee-a4uKBJ4-41" value="8080/TCP" style="text;html=1;strokeColor=none;fillColor=none;align=center;verticalAlign=middle;whiteSpace=wrap;rounded=0;" vertex="1" parent="1">
          <mxGeometry x="140" y="517" width="60" height="30" as="geometry" />
        </mxCell>
        <mxCell id="EPUnmvleZXee-a4uKBJ4-42" value="8080/TCP" style="text;html=1;strokeColor=none;fillColor=none;align=center;verticalAlign=middle;whiteSpace=wrap;rounded=0;" vertex="1" parent="1">
          <mxGeometry x="140" y="451" width="60" height="30" as="geometry" />
        </mxCell>
      </root>
    </mxGraphModel>
  </diagram>
</mxfile>
